<svg xmlns="http://www.w3.org/2000/svg" viewBox="0 0 512 512" width="512" height="512"><g transform="translate(44.00 49.89) scale(0.4711)"><path fill="#c9ccd1" fill-rule="evenodd" d="M232.28 804.08 C198.72 795.83 179.82 763.36 187.91 727.85 C188.46 725.46 189.83 718.55 190.95 712.50 C192.98 701.60 194.56 693.47 197.45 679.00 C198.27 674.88 199.40 668.80 199.95 665.50 C200.50 662.20 201.62 655.90 202.45 651.50 C203.28 647.10 205.11 636.75 206.53 628.50 C211.54 599.34 218.06 565.72 220.54 556.18 C222.96 546.89 222.56 541.00 219.50 541.00 C217.51 541.00 217.00 541.50 217.00 543.47 C217.00 544.83 215.21 553.49 213.03 562.72 C208.26 582.88 206.59 590.62 204.47 602.50 C203.59 607.45 202.25 614.20 201.49 617.50 C200.74 620.80 199.85 625.30 199.53 627.50 C197.67 640.04 190.57 676.04 188.31 684.33 C187.11 688.76 186.50 683.69 186.50 669.16 C186.50 655.65 186.74 653.23 188.25 651.56 C189.38 650.31 190.00 648.00 190.00 645.03 C190.00 642.51 190.64 639.54 191.41 638.43 C192.41 637.00 193.17 630.19 194.02 614.96 C194.73 602.07 195.66 592.94 196.35 592.09 C198.01 590.07 197.90 564.80 196.23 564.24 C195.55 564.02 195.00 562.52 195.00 560.92 C195.00 559.31 194.55 558.00 194.00 558.00 C193.45 558.00 193.00 557.33 193.00 556.50 C193.00 555.67 192.55 555.00 192.00 555.00 C191.45 555.00 191.00 553.09 190.99 550.75 C190.99 548.41 190.32 545.21 189.49 543.64 C188.67 542.06 188.00 539.73 188.00 538.47 C188.00 535.12 186.99 533.00 185.39 533.00 C184.63 533.00 184.00 532.09 184.00 530.97 C184.00 528.95 182.23 527.10 172.31 518.78 C169.46 516.39 165.75 512.65 164.07 510.46 C162.40 508.28 160.56 505.94 159.99 505.26 C157.91 502.80 151.03 489.46 151.01 487.88 C151.00 486.26 139.10 474.98 134.15 471.91 C129.40 468.96 126.82 465.43 127.17 462.35 C127.49 459.62 128.05 460.03 141.00 472.53 C157.11 488.07 165.25 495.00 167.41 495.00 C168.28 495.00 169.00 495.57 169.00 496.28 C169.00 496.98 172.05 500.58 175.78 504.28 C183.00 511.44 187.00 513.03 187.00 508.72 C187.00 506.01 174.36 493.00 171.72 493.00 C170.78 493.00 170.00 492.37 170.00 491.60 C170.00 490.82 156.61 477.25 140.25 461.42 C77.97 401.19 76.55 399.50 71.44 379.36 C67.76 364.87 68.92 354.88 75.84 341.50 C87.94 318.08 105.35 311.30 190.00 297.06 C200.18 295.34 210.75 293.51 213.50 292.98 C221.16 291.51 252.12 286.44 265.00 284.55 C287.49 281.25 299.00 278.16 299.00 275.40 C299.00 272.51 299.57 272.53 285.70 274.99 C279.54 276.09 266.40 278.13 256.50 279.53 C246.60 280.93 235.35 282.68 231.50 283.42 C196.08 290.27 164.60 294.83 161.35 293.58 C159.10 292.72 163.79 288.00 166.91 288.00 C169.41 288.00 173.94 286.02 176.28 283.91 C177.26 283.02 179.96 281.73 182.28 281.04 C184.60 280.35 186.72 279.45 187.00 279.05 C187.95 277.66 203.26 272.00 206.06 272.00 C207.61 272.00 209.14 271.59 209.45 271.08 C209.76 270.57 214.53 269.84 220.03 269.45 C225.54 269.06 230.28 268.35 230.58 267.87 C230.88 267.39 232.55 266.99 234.31 266.97 C236.06 266.95 238.37 266.28 239.44 265.47 C240.51 264.66 242.65 264.00 244.19 264.00 C245.74 264.00 247.00 263.61 247.00 263.13 C247.00 262.65 248.98 262.04 251.40 261.76 C253.82 261.49 256.41 260.75 257.15 260.12 C257.89 259.49 260.02 257.70 261.87 256.15 C263.72 254.59 266.86 252.73 268.83 252.02 C270.81 251.30 273.04 250.11 273.78 249.36 C274.53 248.61 276.20 248.00 277.50 248.00 C278.80 248.00 280.53 247.32 281.36 246.50 C282.18 245.67 283.34 245.00 283.93 245.00 C284.52 245.00 285.00 244.55 285.00 244.00 C285.00 243.45 285.56 242.99 286.25 242.97 C287.83 242.94 297.00 234.48 297.00 233.06 C297.00 232.48 297.90 231.10 299.00 230.00 C300.14 228.86 301.00 226.67 301.00 224.91 C301.00 223.09 302.30 219.92 304.17 217.16 C310.19 208.32 310.72 207.45 311.43 205.23 C311.82 204.00 312.55 203.00 313.07 203.00 C313.58 203.00 314.00 202.53 314.00 201.96 C314.00 200.83 314.43 200.25 319.00 195.14 C320.65 193.30 322.00 190.75 322.00 189.48 C322.00 188.21 322.34 187.02 322.75 186.83 C324.18 186.20 330.00 177.17 330.00 175.59 C330.00 174.71 330.45 174.00 331.00 174.00 C331.55 174.00 332.02 173.44 332.05 172.75 C332.08 172.06 333.87 169.70 336.04 167.50 C338.21 165.30 339.99 163.18 339.99 162.80 C340.00 162.41 343.15 159.03 347.00 155.30 C350.85 151.56 354.00 148.12 354.00 147.65 C354.00 145.65 357.62 139.35 359.72 137.68 C360.97 136.68 362.00 135.02 362.00 134.00 C362.00 132.98 364.04 130.42 366.52 128.32 C369.01 126.22 372.70 123.04 374.72 121.25 C377.97 118.38 380.00 117.26 380.00 118.36 C380.00 119.66 372.76 134.26 367.53 143.50 C355.96 163.94 341.00 192.98 341.00 195.00 C341.00 196.11 340.33 197.00 339.50 197.00 C338.57 197.00 338.00 197.94 338.00 199.50 C338.00 200.92 337.42 202.00 336.66 202.00 C335.14 202.00 333.00 206.12 333.00 209.05 C333.00 210.43 333.69 211.00 335.34 211.00 C337.79 211.00 340.00 207.66 340.00 203.95 C340.00 202.88 340.68 202.00 341.50 202.00 C342.43 202.00 343.00 201.06 343.00 199.50 C343.00 198.11 343.58 197.00 344.30 197.00 C345.02 197.00 350.04 188.79 355.47 178.75 C396.30 103.26 408.23 86.18 426.03 77.67 C456.51 63.11 485.88 73.20 505.45 104.96 C516.13 122.30 533.27 154.07 557.81 202.00 C578.82 243.05 578.21 241.98 580.75 241.99 C582.34 242.00 583.00 241.41 583.00 239.99 C583.00 237.98 548.50 168.95 539.54 153.04 C531.55 138.84 523.38 119.00 525.52 119.00 C528.24 119.00 536.26 125.73 541.03 132.00 C542.91 134.47 544.70 136.72 545.01 137.00 C547.67 139.39 552.00 146.94 552.00 149.20 C552.00 150.74 552.45 152.00 553.00 152.00 C553.55 152.00 554.00 152.58 554.00 153.30 C554.00 155.21 561.29 164.94 562.75 164.97 C563.44 164.99 564.00 165.68 564.00 166.50 C564.00 167.33 564.89 168.00 566.00 168.00 C567.35 168.00 568.00 168.67 568.00 170.04 C568.00 171.17 568.44 172.63 568.99 173.29 C574.73 180.32 577.11 184.58 577.66 188.79 C578.00 191.38 578.86 194.62 579.58 196.00 C580.29 197.38 581.15 200.19 581.49 202.25 C581.82 204.31 582.52 206.00 583.05 206.00 C583.57 206.00 584.00 206.68 584.00 207.50 C584.00 208.32 584.45 209.00 585.00 209.00 C585.55 209.00 586.00 210.09 586.00 211.42 C586.00 213.04 587.97 215.81 592.00 219.84 C595.30 223.14 598.00 226.39 598.00 227.05 C598.00 228.32 601.76 232.00 603.06 232.00 C603.47 232.00 607.11 235.28 611.15 239.29 C622.64 250.69 626.77 254.00 629.52 254.00 C630.90 254.00 632.81 254.40 633.76 254.89 C636.21 256.15 644.13 257.79 653.50 258.98 C657.90 259.53 663.30 260.43 665.50 260.97 C667.70 261.51 671.16 261.96 673.19 261.98 C675.22 261.99 677.16 262.45 677.50 263.00 C677.84 263.55 679.35 264.00 680.85 264.00 C682.35 264.00 685.34 264.90 687.50 266.00 C689.66 267.10 692.44 268.00 693.68 268.00 C694.93 268.00 698.49 269.13 701.60 270.50 C704.71 271.88 708.26 273.00 709.49 273.00 C710.72 273.00 715.27 274.12 719.60 275.50 C723.93 276.87 729.17 278.00 731.24 278.00 C733.31 278.00 735.00 278.40 735.00 278.88 C735.00 279.37 736.99 280.26 739.42 280.88 C741.86 281.49 744.52 282.67 745.35 283.50 C746.18 284.32 747.53 285.00 748.35 285.00 C750.07 285.00 756.34 288.14 756.83 289.25 C757.02 289.66 757.84 290.00 758.66 290.00 C759.52 290.00 760.01 290.71 759.82 291.70 C759.29 294.44 731.92 292.13 711.00 287.58 C704.74 286.21 698.48 285.35 663.35 281.03 C654.47 279.94 641.47 277.92 634.46 276.55 C627.45 275.18 618.29 273.80 614.11 273.48 C601.08 272.49 596.00 270.78 596.00 267.40 C596.00 265.66 591.61 256.00 590.82 256.00 C590.37 256.00 590.00 255.12 590.00 254.03 C590.00 250.14 586.77 245.00 584.31 245.00 C582.68 245.00 582.00 245.58 582.00 246.97 C582.00 249.38 585.07 256.00 586.19 256.00 C586.63 256.00 587.00 256.84 587.00 257.87 C587.00 260.41 591.06 270.00 592.13 270.00 C592.61 270.00 593.00 270.73 593.00 271.63 C593.00 272.53 593.94 274.08 595.10 275.09 C597.21 276.92 599.66 277.41 612.50 278.56 C616.35 278.90 624.05 280.26 629.61 281.56 C640.19 284.05 646.85 285.12 663.50 287.02 C677.16 288.57 692.99 290.84 702.00 292.54 C706.12 293.31 720.98 295.73 735.00 297.90 C785.13 305.67 802.13 311.45 816.20 325.49 C834.04 343.31 836.39 371.35 822.09 395.84 C816.72 405.03 780.25 441.28 745.59 471.88 C742.24 474.83 730.05 486.34 718.50 497.45 C696.57 518.54 689.66 524.92 681.75 531.37 C679.14 533.50 677.00 535.70 677.00 536.26 C677.00 536.82 676.23 537.85 675.28 538.54 C672.86 540.31 675.88 575.05 679.49 587.00 C680.36 589.88 690.07 647.86 699.00 703.50 C700.14 710.65 701.79 720.55 702.65 725.50 C708.47 758.94 700.50 780.31 677.46 793.02 C657.38 804.10 643.64 804.15 619.50 793.21 C613.45 790.47 603.77 786.14 598.00 783.58 C592.23 781.03 576.48 773.15 563.00 766.06 C549.52 758.98 530.17 749.13 520.00 744.18 C509.82 739.22 497.45 732.81 492.50 729.93 C484.06 725.02 479.18 722.60 459.65 713.61 C455.33 711.63 450.38 710.01 448.65 710.01 C444.63 710.03 386.15 739.22 349.50 759.50 C342.35 763.46 320.75 774.66 301.50 784.38 C257.21 806.75 250.70 808.61 232.28 804.08 Z M310.84 260.45 C311.48 259.05 312.00 257.03 312.00 255.95 C312.00 254.88 312.68 254.00 313.50 254.00 C314.32 254.00 315.00 253.32 315.00 252.50 C315.00 251.68 315.45 251.00 316.00 251.00 C316.55 251.00 317.00 249.88 317.00 248.50 C317.00 247.00 317.57 246.00 318.43 246.00 C319.22 246.00 320.18 244.99 320.57 243.75 C320.95 242.51 321.60 241.28 322.00 241.00 C323.38 240.06 328.00 230.07 328.00 228.03 C328.00 223.17 323.52 225.67 320.43 232.25 C318.82 235.69 316.94 239.09 316.25 239.82 C315.56 240.55 315.00 242.24 315.00 243.57 C315.00 245.06 314.42 246.00 313.50 246.00 C312.68 246.00 312.00 246.68 312.00 247.50 C312.00 248.32 311.55 249.00 311.00 249.00 C310.45 249.00 310.00 250.12 310.00 251.50 C310.00 252.92 309.42 254.00 308.66 254.00 C307.14 254.00 305.00 258.12 305.00 261.05 C305.00 264.08 309.39 263.63 310.84 260.45 Z M332.39 221.42 C333.71 217.98 333.06 216.00 330.61 216.00 C328.17 216.00 327.00 217.65 327.00 221.08 C327.00 223.48 331.49 223.76 332.39 221.42 Z"/><path fill="#333333" fill-rule="evenodd" d="M232.28 804.08 C198.72 795.83 179.82 763.36 187.91 727.85 C188.46 725.46 189.83 718.55 190.95 712.50 C192.98 701.60 194.56 693.47 197.45 679.00 C198.27 674.88 199.40 668.80 199.95 665.50 C200.50 662.20 201.62 655.90 202.45 651.50 C203.28 647.10 205.11 636.75 206.53 628.50 C211.54 599.34 218.06 565.72 220.54 556.18 C223.76 543.82 223.08 541.51 213.77 533.01 C209.25 528.88 195.61 515.60 183.46 503.50 C171.32 491.40 145.53 466.23 126.15 447.56 C78.61 401.77 76.44 399.06 71.40 379.20 C67.77 364.88 68.95 354.83 75.84 341.50 C87.94 318.08 105.35 311.30 190.00 297.06 C200.18 295.34 210.75 293.51 213.50 292.98 C221.16 291.51 252.12 286.44 265.00 284.55 C297.38 279.80 301.78 277.88 308.01 265.78 C310.36 261.22 314.67 253.61 317.58 248.85 C320.50 244.09 326.95 232.08 331.92 222.15 C336.89 212.22 342.69 201.26 344.81 197.80 C346.93 194.33 353.65 182.28 359.75 171.00 C407.04 83.63 421.41 68.74 455.84 71.46 C488.62 74.05 501.27 89.86 553.07 193.00 C558.18 203.18 566.52 219.23 571.60 228.69 C576.68 238.14 582.49 249.62 584.51 254.19 C595.21 278.35 593.62 276.75 608.35 278.11 C613.93 278.62 624.35 280.35 631.50 281.96 C643.55 284.67 649.06 285.49 672.00 287.99 C681.16 288.99 690.11 290.35 702.00 292.56 C706.12 293.32 720.98 295.73 735.00 297.90 C785.13 305.67 802.13 311.45 816.20 325.49 C834.04 343.31 836.39 371.35 822.09 395.84 C816.72 405.03 780.25 441.28 745.59 471.88 C742.24 474.83 730.05 486.35 718.50 497.47 C706.95 508.59 693.90 520.80 689.50 524.60 C674.86 537.23 671.58 541.93 673.39 547.66 C673.71 548.67 675.11 557.60 676.51 567.50 C677.90 577.40 679.24 586.17 679.49 587.00 C680.37 589.89 690.08 647.94 699.00 703.50 C700.14 710.65 701.79 720.55 702.65 725.50 C708.47 758.94 700.50 780.31 677.46 793.02 C657.38 804.10 643.64 804.15 619.50 793.21 C613.45 790.47 603.77 786.14 598.00 783.58 C592.23 781.03 576.48 773.15 563.00 766.06 C549.52 758.98 530.17 749.13 520.00 744.18 C509.82 739.22 497.45 732.81 492.50 729.93 C484.06 725.02 479.18 722.60 459.65 713.61 C455.33 711.63 450.38 710.01 448.65 710.01 C444.63 710.03 386.15 739.22 349.50 759.50 C342.35 763.46 320.75 774.66 301.50 784.38 C257.21 806.75 250.70 808.61 232.28 804.08 Z M261.00 776.17 C271.54 772.49 286.64 765.34 296.54 759.34 C302.02 756.02 317.30 747.90 330.50 741.30 C343.70 734.71 358.77 726.92 364.00 724.01 C369.23 721.09 380.48 715.24 389.00 711.01 C397.52 706.78 412.91 699.00 423.18 693.73 C442.22 683.95 445.30 682.96 452.70 684.21 C457.48 685.02 526.29 718.64 548.28 730.91 C556.28 735.38 572.66 743.56 584.66 749.10 C596.67 754.63 612.12 762.16 618.99 765.83 C644.10 779.24 656.66 779.95 668.31 768.63 C680.22 757.06 681.21 747.72 674.52 710.50 C671.95 696.20 668.78 677.30 667.47 668.50 C664.97 651.72 662.59 637.52 658.49 615.00 C657.14 607.58 655.31 595.88 654.43 589.00 C653.55 582.12 651.52 570.02 649.92 562.09 C646.41 544.79 646.23 538.43 649.08 532.85 C651.48 528.13 675.77 503.66 711.95 469.50 C801.17 385.26 804.05 382.05 804.85 366.37 C805.94 344.77 794.39 333.90 764.50 328.41 C756.80 326.99 740.15 323.87 727.50 321.48 C714.85 319.09 698.42 316.41 691.00 315.53 C675.92 313.73 661.00 311.33 638.00 307.00 C629.48 305.39 613.79 302.91 603.15 301.47 C581.68 298.59 579.91 298.13 577.52 294.81 C574.67 290.83 559.04 261.88 555.23 253.50 C549.41 240.70 512.81 169.71 506.00 158.00 C503.92 154.43 498.55 144.26 494.08 135.42 C482.23 111.97 472.58 101.39 459.46 97.44 C445.62 93.27 431.19 98.97 423.28 111.72 C421.65 114.35 416.94 121.90 412.82 128.50 C408.70 135.10 402.10 146.46 398.15 153.74 C394.20 161.03 388.90 170.48 386.36 174.74 C383.83 179.01 375.80 193.53 368.52 207.00 C350.30 240.73 344.94 250.45 340.37 258.00 C338.21 261.57 334.75 268.32 332.69 273.00 C327.65 284.42 322.05 293.89 319.00 296.14 C316.00 298.35 259.59 309.54 168.50 326.00 C109.24 336.71 101.85 340.17 96.39 359.83 C91.35 377.95 96.30 384.11 184.50 469.49 C241.55 524.71 248.00 531.69 248.00 538.23 C248.00 542.88 244.00 567.68 239.98 588.00 C238.40 595.98 236.14 608.12 234.97 615.00 C233.79 621.88 231.78 632.45 230.50 638.50 C229.22 644.55 227.20 655.58 226.00 663.00 C224.80 670.42 222.53 683.48 220.95 692.00 C217.60 710.02 213.07 736.60 212.28 742.80 C209.16 767.26 235.27 785.14 261.00 776.17 Z"/></g></svg>
