<svg xmlns="http://www.w3.org/2000/svg" viewBox="0 0 512 512" width="512" height="512"><g transform="translate(44.00 54.84) scale(0.4711)"><path fill="#c9ccd1" fill-rule="evenodd" d="M384.00 803.03 C350.68 801.61 314.23 798.85 291.50 796.02 C279.17 794.49 253.62 791.07 242.31 789.45 C186.82 781.47 165.27 759.68 172.56 718.95 C173.13 715.75 172.73 714.85 168.52 709.95 C159.43 699.38 156.89 690.20 159.54 677.50 C161.62 667.50 161.48 666.46 156.62 656.78 C147.89 639.41 148.32 625.57 158.03 611.46 C161.83 605.93 161.77 603.17 157.72 597.83 C155.92 595.45 151.91 589.90 148.81 585.50 C145.71 581.10 141.74 576.15 139.97 574.50 C109.11 545.63 77.24 492.76 71.55 461.00 C70.61 455.77 69.21 448.35 68.43 444.50 C64.86 426.79 64.37 407.68 67.10 392.52 C67.59 389.76 68.66 383.45 69.47 378.50 C71.38 366.79 74.26 355.70 77.44 347.73 C80.67 339.68 80.70 338.00 77.62 338.00 C72.44 338.00 65.80 360.21 60.44 395.43 C58.52 408.04 58.89 425.97 61.39 440.50 C66.01 467.45 68.13 478.84 69.11 481.82 C70.58 486.29 69.77 486.70 66.69 483.04 C65.28 481.37 63.69 480.00 63.15 480.00 C62.61 480.00 62.02 479.66 61.83 479.25 C61.65 478.84 60.16 477.81 58.52 476.98 C56.89 476.14 54.86 474.11 54.02 472.48 C53.19 470.84 52.25 469.27 51.94 469.00 C50.95 468.12 46.00 453.26 46.00 451.18 C46.00 450.07 45.62 449.02 45.16 448.83 C44.69 448.65 44.76 442.20 45.29 434.50 C46.35 419.44 46.48 403.60 45.71 384.50 C45.25 372.85 46.22 365.31 48.39 363.82 C48.93 363.45 49.71 360.75 50.11 357.82 C51.54 347.37 52.28 344.00 53.13 344.00 C53.61 344.00 54.00 342.58 54.00 340.84 C54.00 337.06 57.03 327.00 58.17 327.00 C58.61 327.00 59.48 324.98 60.10 322.50 C60.73 320.02 61.55 318.00 61.93 318.00 C62.31 318.00 63.72 315.53 65.06 312.51 C66.40 309.49 67.79 307.02 68.14 307.01 C68.49 307.00 69.08 305.84 69.43 304.41 C70.18 301.44 70.92 300.43 76.76 294.40 C79.10 291.98 81.68 290.00 82.51 290.00 C83.33 290.00 84.00 289.32 84.00 288.50 C84.00 287.68 84.67 287.00 85.50 287.00 C86.33 287.00 87.00 286.32 87.00 285.50 C87.00 284.68 87.45 284.00 88.00 284.00 C88.55 284.00 89.00 283.32 89.00 282.50 C89.00 281.45 90.06 281.00 92.50 281.00 C95.72 281.00 96.00 280.76 96.00 278.00 C96.00 276.35 96.45 275.00 97.00 275.00 C97.55 275.00 98.00 273.88 98.00 272.50 C98.00 268.50 102.75 264.85 109.75 263.48 C111.54 263.13 113.00 262.46 113.00 262.00 C113.00 261.54 114.35 260.86 116.00 260.50 C117.65 260.14 119.01 259.54 119.01 259.17 C119.02 258.80 120.77 257.66 122.91 256.64 C125.05 255.62 128.27 252.82 130.06 250.42 C137.78 240.11 151.48 234.57 180.50 230.02 C183.25 229.59 187.07 228.73 188.99 228.12 C195.06 226.18 194.68 227.80 188.48 230.36 C184.51 231.99 163.66 243.54 143.89 255.07 C135.02 260.24 117.00 277.35 117.00 280.60 C117.00 285.12 120.78 283.37 130.34 274.43 C149.11 256.87 183.31 239.00 214.91 230.26 C231.86 225.57 269.00 226.72 291.50 232.63 C307.69 236.88 307.84 236.88 316.65 231.63 C327.35 225.26 334.34 223.89 357.14 223.67 L375.50 223.50 L384.50 226.84 C401.61 233.20 403.93 231.33 392.72 220.22 C385.56 213.12 381.00 211.72 381.00 216.63 C381.00 219.06 380.75 219.21 377.75 218.66 C375.96 218.32 369.38 217.15 363.11 216.06 C349.46 213.67 350.76 214.82 350.45 204.77 C350.30 200.22 349.87 195.04 349.48 193.25 C348.34 188.02 351.39 190.06 368.09 205.75 C374.09 211.38 378.00 212.61 378.00 208.85 C378.00 207.47 373.84 202.42 366.25 194.60 C327.72 154.91 331.53 98.42 374.48 72.55 C386.50 65.32 418.75 62.66 432.47 67.77 C440.21 70.66 442.00 70.64 442.00 67.65 C442.00 58.06 391.03 55.68 374.00 64.49 C341.05 81.52 325.87 117.06 335.55 154.49 C339.98 171.62 339.53 172.45 331.07 162.62 L326.87 157.73 L327.42 141.39 C327.84 128.73 328.42 123.69 329.98 119.05 C331.09 115.76 332.00 112.01 332.00 110.72 C332.00 109.44 332.66 107.51 333.47 106.44 C335.19 104.16 335.40 100.19 333.99 96.49 C332.90 93.60 335.32 83.00 337.07 83.00 C337.58 83.00 338.00 81.88 338.00 80.50 C338.00 78.67 338.53 78.00 340.00 78.00 C341.10 78.00 342.00 77.51 342.00 76.91 C342.00 75.84 350.57 67.00 351.61 67.00 C352.75 67.00 355.00 64.06 355.00 62.57 C355.00 61.71 355.42 61.00 355.93 61.00 C356.44 61.00 358.53 59.43 360.57 57.50 C362.61 55.58 365.12 54.00 366.14 54.00 C367.48 54.00 368.00 53.27 368.00 51.37 L368.00 48.74 L360.50 49.22 C353.70 49.65 353.00 49.53 353.00 47.85 C353.00 46.47 352.25 46.00 350.08 46.00 C348.48 46.00 347.01 45.54 346.83 44.99 C346.40 43.69 330.77 42.46 328.34 43.53 C327.33 43.98 322.96 44.22 318.63 44.06 C314.01 43.90 310.49 44.21 310.12 44.81 C309.77 45.37 303.64 46.34 296.49 46.95 C289.35 47.56 281.59 48.32 279.25 48.64 C276.47 49.01 275.00 48.83 275.00 48.11 C275.00 47.50 273.54 47.00 271.75 47.00 C268.15 47.00 251.97 44.30 251.25 43.59 C247.70 40.04 282.88 33.77 322.00 30.99 C329.98 30.42 344.15 29.24 353.50 28.38 C383.16 25.62 470.95 24.60 482.25 26.87 C488.35 28.10 492.04 31.00 487.50 31.00 C486.32 31.00 486.00 32.39 486.00 37.50 C486.00 42.61 486.32 44.00 487.50 44.00 C488.32 44.00 489.00 44.39 489.00 44.87 C489.00 45.35 491.14 46.27 493.75 46.92 C496.36 47.57 499.88 48.53 501.57 49.05 C503.26 49.57 506.43 50.00 508.62 50.00 C512.30 50.00 521.00 54.29 521.00 56.10 C521.00 57.21 515.10 58.00 506.62 58.02 C491.47 58.05 474.00 63.23 474.00 67.69 C474.00 70.60 474.95 70.57 485.50 67.36 C493.73 64.86 520.46 64.85 529.92 67.35 C543.64 70.97 559.00 84.35 570.05 102.28 C576.37 112.54 578.42 139.84 573.88 153.25 C565.93 176.71 554.13 193.61 534.00 210.39 C517.91 223.80 517.31 230.22 532.62 225.17 C549.13 219.72 580.56 222.28 595.16 230.27 L600.82 233.36 L609.66 230.73 C627.85 225.32 661.73 223.67 679.00 227.36 C706.17 233.18 735.16 244.47 751.11 255.46 C755.54 258.51 759.47 261.00 759.84 261.00 C760.21 261.00 761.08 261.90 761.77 263.00 C762.45 264.10 763.86 265.00 764.89 265.00 C765.93 265.00 767.00 265.90 767.29 267.00 C767.65 268.37 768.65 269.00 770.47 269.00 C773.98 269.00 773.87 263.70 770.35 263.19 C769.17 263.03 767.97 261.98 767.68 260.87 C767.39 259.76 766.22 258.61 765.07 258.31 C763.93 258.01 763.00 257.42 763.00 257.00 C763.00 253.28 738.16 237.78 722.21 231.54 C715.46 228.90 710.16 226.51 710.43 226.23 C712.02 224.65 732.78 230.88 733.83 233.25 C734.02 233.66 734.92 234.01 735.83 234.03 C736.75 234.05 738.37 234.72 739.44 235.53 C740.51 236.34 742.24 237.00 743.28 237.00 C744.33 237.00 745.93 237.85 746.84 238.89 C747.75 239.92 750.64 241.28 753.25 241.90 C755.87 242.52 760.45 244.15 763.44 245.52 C766.43 246.88 769.80 248.00 770.94 248.00 C772.07 248.00 773.00 248.34 773.00 248.76 C773.00 249.17 775.36 250.58 778.25 251.89 C786.57 255.65 794.29 260.73 797.00 264.24 C798.38 266.01 801.98 270.02 805.00 273.15 C811.51 279.88 814.00 282.79 814.00 283.65 C814.00 284.00 815.35 286.47 817.00 289.15 C818.65 291.84 820.00 294.76 820.00 295.65 C820.00 296.54 821.12 298.31 822.50 299.59 C823.88 300.86 825.00 302.76 825.00 303.80 C825.00 304.84 825.86 306.47 826.92 307.43 C829.90 310.12 837.73 326.95 838.46 332.23 C838.82 334.83 839.54 337.22 840.06 337.54 C840.58 337.86 841.00 340.58 841.00 343.58 C841.00 349.10 843.47 354.66 847.36 357.89 C848.26 358.63 849.00 360.08 849.00 361.10 C849.00 362.12 849.90 364.43 851.00 366.23 C852.09 368.03 852.99 370.92 853.00 372.67 C853.00 374.41 853.53 376.01 854.18 376.23 C855.07 376.52 855.03 378.29 853.99 383.56 C852.69 390.21 851.91 404.98 852.02 421.02 C852.08 429.53 849.73 446.77 848.09 449.83 C847.49 450.95 847.00 452.84 847.00 454.02 C847.00 460.17 838.80 480.68 831.36 493.13 C829.28 496.63 828.00 500.08 828.00 502.23 C828.00 505.33 827.34 506.58 823.02 511.71 C822.46 512.37 822.00 513.38 822.00 513.96 C822.00 515.52 818.21 519.00 816.52 519.00 C815.04 519.00 822.07 503.90 825.31 500.12 C826.78 498.40 837.54 468.31 840.90 456.50 C845.31 441.02 846.89 402.98 843.72 388.50 C842.75 384.10 841.24 377.12 840.34 373.00 C835.56 350.89 832.88 343.57 823.03 325.61 C814.76 310.51 809.87 303.04 808.25 303.02 C807.56 303.01 807.00 302.10 807.00 301.00 C807.00 299.53 806.33 299.00 804.50 299.00 C802.50 299.00 802.00 299.50 802.00 301.50 C802.00 303.06 802.57 304.00 803.50 304.00 C804.33 304.00 805.00 304.74 805.00 305.64 C805.00 306.55 806.85 310.21 809.10 313.78 C847.10 373.95 848.28 445.89 812.26 507.56 C804.36 521.08 773.41 560.52 758.26 576.36 C741.29 594.12 737.65 602.94 743.67 611.68 C752.39 624.35 751.56 644.34 741.51 663.80 C740.01 666.71 739.95 667.85 741.04 673.34 C743.22 684.31 740.72 693.99 732.26 707.27 C729.25 711.99 729.22 712.16 729.75 722.49 C732.05 767.60 708.78 784.37 630.50 794.00 C626.10 794.55 618.67 795.65 614.00 796.46 C609.33 797.27 594.25 798.65 580.50 799.52 C566.75 800.38 550.10 801.54 543.50 802.07 C528.03 803.34 408.16 804.06 384.00 803.03 Z M501.00 782.03 C517.23 781.50 539.16 780.52 549.75 779.86 L569.00 778.65 L569.00 776.17 L569.00 773.70 L557.75 774.33 C498.45 777.63 402.56 777.76 358.50 774.60 C346.40 773.74 329.52 772.54 321.00 771.95 C295.49 770.18 245.14 763.44 241.76 761.35 C240.40 760.51 243.72 758.00 246.19 758.00 C247.45 758.00 248.00 757.25 248.00 755.50 C248.00 752.57 246.79 752.41 239.45 754.37 C231.76 756.42 230.00 757.65 230.00 760.98 C230.00 764.85 229.23 764.57 251.20 768.54 C286.55 774.92 288.04 775.07 359.50 780.00 C396.99 782.59 457.05 783.45 501.00 782.03 Z M595.00 776.06 C627.50 772.34 630.00 771.86 630.00 769.28 C630.00 766.51 628.50 766.43 615.31 768.43 C610.26 769.20 597.99 770.64 588.06 771.63 C570.44 773.39 570.00 773.48 570.00 775.71 C570.00 778.62 572.37 778.65 595.00 776.06 Z M636.00 768.50 C636.00 766.50 635.50 766.00 633.50 766.00 C631.50 766.00 631.00 766.50 631.00 768.50 C631.00 770.50 631.50 771.00 633.50 771.00 C635.50 771.00 636.00 770.50 636.00 768.50 Z M650.00 766.50 C650.00 764.50 649.50 764.00 647.50 764.00 C645.50 764.00 645.00 764.50 645.00 766.50 C645.00 768.50 645.50 769.00 647.50 769.00 C649.50 769.00 650.00 768.50 650.00 766.50 Z M657.00 765.50 C657.00 763.50 656.50 763.00 654.50 763.00 C652.50 763.00 652.00 763.50 652.00 765.50 C652.00 767.50 652.50 768.00 654.50 768.00 C656.50 768.00 657.00 767.50 657.00 765.50 Z M668.78 764.44 C672.02 762.17 671.67 758.40 668.05 756.53 C662.39 753.60 661.14 754.31 661.14 760.50 C661.14 766.61 663.75 767.96 668.78 764.44 Z M263.50 753.59 C276.83 750.38 290.07 748.37 310.00 746.53 C319.07 745.69 334.82 744.12 345.00 743.05 C410.05 736.22 491.49 736.04 560.00 742.57 C575.83 744.08 578.79 744.47 620.54 750.52 C649.14 754.66 647.00 754.57 647.00 751.58 C647.00 748.65 644.71 748.06 621.29 744.93 C612.61 743.76 601.00 742.19 595.50 741.42 C527.90 732.05 435.37 729.66 366.00 735.50 C347.04 737.09 320.21 739.88 318.00 740.49 C317.18 740.71 310.20 741.39 302.50 742.00 C273.93 744.25 250.00 749.60 250.00 753.74 C250.00 756.61 250.99 756.60 263.50 753.59 Z M625.89 686.56 C632.87 683.02 637.00 679.25 637.00 676.41 C637.00 672.98 633.96 673.28 628.73 677.25 C626.37 679.04 622.77 681.39 620.72 682.48 C612.15 687.03 617.15 690.98 625.89 686.56 Z M302.00 683.50 C302.00 681.50 301.50 681.00 299.50 681.00 C297.50 681.00 297.00 681.50 297.00 683.50 C297.00 685.50 297.50 686.00 299.50 686.00 C301.50 686.00 302.00 685.50 302.00 683.50 Z M308.00 676.50 C308.00 674.50 307.50 674.00 305.50 674.00 C303.50 674.00 303.00 674.50 303.00 676.50 C303.00 678.50 303.50 679.00 305.50 679.00 C307.50 679.00 308.00 678.50 308.00 676.50 Z M640.84 669.13 C642.57 663.37 642.34 662.00 639.66 662.00 C637.35 662.00 635.00 666.72 635.00 671.37 C635.00 675.00 639.61 673.24 640.84 669.13 Z M620.00 652.50 C620.00 650.39 619.53 650.00 617.00 650.00 C614.47 650.00 614.00 650.39 614.00 652.50 C614.00 654.61 614.47 655.00 617.00 655.00 C619.53 655.00 620.00 654.61 620.00 652.50 Z M267.55 652.37 C269.49 651.10 271.33 650.89 275.92 651.41 L281.81 652.08 L282.50 647.97 C283.38 642.77 283.76 643.02 273.88 642.39 C266.58 641.93 265.08 642.12 262.25 643.91 C259.12 645.90 257.50 651.00 260.00 651.00 C260.55 651.00 261.00 651.67 261.00 652.50 C261.00 654.48 264.43 654.42 267.55 652.37 Z M446.00 633.50 C446.00 632.67 446.45 632.00 447.00 632.00 C448.64 632.00 448.13 627.26 446.42 626.61 C443.45 625.47 440.00 625.95 440.00 627.50 C440.00 628.33 439.32 629.00 438.50 629.00 C435.94 629.00 436.62 633.79 439.25 634.29 C444.05 635.22 446.00 634.99 446.00 633.50 Z M438.00 625.50 C438.00 623.50 437.50 623.00 435.50 623.00 C433.50 623.00 433.00 623.50 433.00 625.50 C433.00 627.50 433.50 628.00 435.50 628.00 C437.50 628.00 438.00 627.50 438.00 625.50 Z M279.00 598.50 L279.00 595.00 L273.50 595.00 L268.00 595.00 L268.00 598.50 L268.00 602.00 L273.50 602.00 L279.00 602.00 L279.00 598.50 Z M632.00 598.62 C632.00 595.25 629.94 594.00 624.38 594.00 C622.61 594.00 622.50 600.63 624.25 601.34 C628.77 603.16 632.00 602.03 632.00 598.62 Z M449.00 586.62 C449.00 584.16 446.90 583.04 442.25 583.01 C440.41 583.00 440.00 583.55 440.00 586.00 C440.00 588.89 440.17 589.00 444.50 589.00 C448.57 589.00 449.00 588.77 449.00 586.62 Z M461.00 585.50 C461.00 581.63 458.28 580.71 454.75 583.39 C451.31 586.00 452.52 589.00 457.00 589.00 C460.90 589.00 461.00 588.92 461.00 585.50 Z M352.17 577.13 C367.78 576.04 368.95 574.13 361.75 561.51 C358.47 555.76 356.99 554.06 355.25 554.03 C352.20 553.99 352.30 557.23 355.51 562.85 C359.96 570.63 361.06 570.06 337.12 572.44 C317.76 574.36 319.24 575.17 321.41 563.92 C323.87 551.12 321.85 539.00 317.25 539.00 C314.88 539.00 314.83 539.14 315.61 544.25 C316.69 551.39 316.18 561.47 314.44 567.43 C310.72 580.17 310.32 580.07 352.17 577.13 Z M586.89 577.36 C589.42 575.60 589.41 576.00 587.03 561.50 C586.49 558.20 586.33 552.69 586.66 549.25 C587.27 543.04 587.26 543.00 584.70 543.00 C580.99 543.00 579.84 555.53 582.19 570.50 C582.53 572.70 579.15 572.78 554.00 571.17 L543.50 570.50 L543.19 567.25 C542.76 562.82 538.82 562.60 537.04 566.91 C533.74 574.88 537.13 576.92 554.00 577.10 C560.88 577.17 569.42 577.56 573.00 577.96 C583.40 579.13 584.43 579.09 586.89 577.36 Z M391.80 573.80 C396.09 569.51 391.19 561.71 384.51 562.20 C380.64 562.49 380.49 562.63 380.18 566.36 C379.64 572.95 387.58 578.02 391.80 573.80 Z M521.44 570.70 C523.30 565.38 518.43 562.18 513.44 565.45 C508.59 568.63 510.99 574.30 516.98 573.80 C519.77 573.56 520.66 572.94 521.44 570.70 Z M550.00 551.50 C550.00 549.50 549.50 549.00 547.50 549.00 C545.50 549.00 545.00 549.50 545.00 551.50 C545.00 553.50 545.50 554.00 547.50 554.00 C549.50 554.00 550.00 553.50 550.00 551.50 Z M353.99 547.25 C353.95 543.09 352.75 541.00 350.38 541.00 C347.89 541.00 347.46 542.40 348.63 546.75 C349.38 549.56 354.01 549.99 353.99 547.25 Z M555.28 536.05 C559.67 521.94 559.76 521.00 556.71 521.00 C554.37 521.00 553.98 521.92 547.90 541.40 C546.39 546.25 546.76 548.00 549.28 548.00 C551.32 548.00 551.95 546.74 555.28 536.05 Z M223.44 543.78 C226.78 539.01 225.61 537.00 219.50 537.00 C214.21 537.00 214.00 537.10 214.00 539.67 C214.00 545.36 220.39 548.14 223.44 543.78 Z M688.44 542.78 C690.93 539.23 690.48 536.00 687.50 536.00 C686.12 536.00 685.00 536.45 685.00 537.00 C685.00 537.55 683.42 538.00 681.50 538.00 C678.51 538.00 678.00 538.34 678.00 540.30 C678.00 545.28 685.45 547.05 688.44 542.78 Z M351.00 537.41 C351.00 531.84 347.50 523.00 345.29 523.00 C342.51 523.00 342.45 524.10 344.71 532.59 C346.38 538.87 351.00 542.42 351.00 537.41 Z M674.00 530.59 C674.00 525.28 662.97 522.31 647.50 523.47 L637.89 524.20 L638.19 526.85 L638.50 529.50 L651.00 529.50 C660.96 529.50 664.11 529.85 666.50 531.21 C671.02 533.78 674.00 533.54 674.00 530.59 Z M264.00 526.50 C264.00 524.39 263.53 524.00 261.00 524.00 C258.47 524.00 258.00 524.39 258.00 526.50 C258.00 528.61 258.47 529.00 261.00 529.00 C263.53 529.00 264.00 528.61 264.00 526.50 Z M697.23 522.25 C698.74 518.54 700.68 512.35 701.56 508.50 C702.43 504.65 704.66 496.32 706.52 490.00 C718.32 449.77 718.86 372.00 707.34 372.00 C704.49 372.00 704.47 372.60 706.98 383.17 C711.71 403.09 710.95 444.47 705.37 470.50 C703.08 481.21 693.33 517.03 691.56 521.22 C689.30 526.59 689.52 529.00 692.25 529.00 C694.09 528.99 695.00 527.76 697.23 522.25 Z M254.00 524.50 C254.00 522.09 253.77 522.00 247.50 522.00 C241.23 522.00 241.00 522.09 241.00 524.50 C241.00 526.91 241.23 527.00 247.50 527.00 C253.77 527.00 254.00 526.91 254.00 524.50 Z M289.75 521.60 C298.76 521.69 299.00 521.63 299.00 519.39 C299.00 515.57 286.26 514.13 276.75 516.89 C269.87 518.88 269.42 523.79 276.25 522.38 C278.59 521.90 284.66 521.54 289.75 521.60 Z M630.00 519.62 C630.00 516.66 627.96 516.03 618.25 516.01 C611.21 516.00 611.00 516.07 611.00 518.46 C611.00 520.81 611.31 520.93 618.25 521.26 C622.24 521.45 626.51 521.69 627.75 521.80 C629.51 521.96 630.00 521.48 630.00 519.62 Z M345.00 517.50 C345.00 515.50 344.50 515.00 342.50 515.00 C340.50 515.00 340.00 515.50 340.00 517.50 C340.00 519.50 340.50 520.00 342.50 520.00 C344.50 520.00 345.00 519.50 345.00 517.50 Z M208.00 512.75 C208.00 506.39 204.35 496.00 202.12 496.00 C199.45 496.00 199.44 501.07 202.11 509.96 C203.29 513.92 208.00 516.15 208.00 512.75 Z M343.00 512.13 C343.00 511.09 342.31 508.31 341.48 505.93 C339.70 500.89 333.00 462.60 333.00 457.48 C333.00 454.39 332.71 454.00 330.36 454.00 L327.72 454.00 L328.26 462.25 C329.64 483.22 337.01 514.00 340.65 514.00 C342.28 514.00 343.00 513.43 343.00 512.13 Z M567.31 497.75 C569.41 488.67 571.68 473.18 572.58 461.75 L573.28 453.00 L570.75 453.00 C568.05 453.00 567.67 454.85 565.49 479.00 C565.16 482.57 564.02 489.25 562.95 493.83 C560.47 504.40 560.49 505.00 563.32 505.00 C565.37 505.00 565.82 504.18 567.31 497.75 Z M366.82 499.75 C367.12 497.15 366.91 497.00 363.07 497.00 C359.47 497.00 359.00 497.27 359.00 499.33 C359.00 504.23 366.26 504.61 366.82 499.75 Z M453.00 497.50 C453.00 495.50 452.50 495.00 450.50 495.00 C448.50 495.00 448.00 495.50 448.00 497.50 C448.00 499.50 448.50 500.00 450.50 500.00 C452.50 500.00 453.00 499.50 453.00 497.50 Z M203.99 493.75 C203.94 488.01 202.65 485.00 200.24 485.00 C197.91 485.00 197.78 485.25 198.36 488.75 C198.70 490.81 198.98 493.06 198.99 493.75 C199.00 494.44 200.12 495.00 201.50 495.00 C202.88 495.00 204.00 494.44 203.99 493.75 Z M201.00 478.50 C201.00 476.50 200.50 476.00 198.50 476.00 C196.50 476.00 196.00 476.50 196.00 478.50 C196.00 480.50 196.50 481.00 198.50 481.00 C200.50 481.00 201.00 480.50 201.00 478.50 Z M199.00 468.50 C199.00 466.50 198.50 466.00 196.50 466.00 C194.50 466.00 194.00 466.50 194.00 468.50 C194.00 470.50 194.50 471.00 196.50 471.00 C198.50 471.00 199.00 470.50 199.00 468.50 Z M198.00 461.50 C198.00 459.50 197.50 459.00 195.50 459.00 C193.50 459.00 193.00 459.50 193.00 461.50 C193.00 463.50 193.50 464.00 195.50 464.00 C197.50 464.00 198.00 463.50 198.00 461.50 Z M574.00 449.00 C574.00 446.47 573.61 446.00 571.50 446.00 C569.39 446.00 569.00 446.47 569.00 449.00 C569.00 451.53 569.39 452.00 571.50 452.00 C573.61 452.00 574.00 451.53 574.00 449.00 Z M332.00 446.50 C332.00 443.43 331.69 443.00 329.50 443.00 C327.31 443.00 327.00 443.43 327.00 446.50 C327.00 449.57 327.31 450.00 329.50 450.00 C331.69 450.00 332.00 449.57 332.00 446.50 Z M195.00 441.50 C195.00 438.43 194.69 438.00 192.50 438.00 C190.31 438.00 190.00 438.43 190.00 441.50 C190.00 444.57 190.31 445.00 192.50 445.00 C194.69 445.00 195.00 444.57 195.00 441.50 Z M576.00 417.00 L576.00 405.00 L573.50 405.00 L571.00 405.00 L571.00 417.00 L571.00 429.00 L573.50 429.00 L576.00 429.00 L576.00 417.00 Z M575.00 394.50 C575.00 390.37 574.80 390.00 572.50 390.00 C570.20 390.00 570.00 390.37 570.00 394.50 C570.00 398.63 570.20 399.00 572.50 399.00 C574.80 399.00 575.00 398.63 575.00 394.50 Z M332.00 387.50 C332.00 384.43 331.69 384.00 329.50 384.00 C327.31 384.00 327.00 384.43 327.00 387.50 C327.00 390.57 327.31 391.00 329.50 391.00 C331.69 391.00 332.00 390.57 332.00 387.50 Z M574.00 381.00 C574.00 378.47 573.61 378.00 571.50 378.00 C569.39 378.00 569.00 378.47 569.00 381.00 C569.00 383.53 569.39 384.00 571.50 384.00 C573.61 384.00 574.00 383.53 574.00 381.00 Z M333.00 377.00 C333.00 374.47 332.61 374.00 330.50 374.00 C328.39 374.00 328.00 374.47 328.00 377.00 C328.00 379.53 328.39 380.00 330.50 380.00 C332.61 380.00 333.00 379.53 333.00 377.00 Z M706.67 364.33 C706.34 362.31 705.67 360.40 705.18 360.08 C704.69 359.76 703.98 357.81 703.60 355.75 C703.22 353.69 702.54 352.00 702.08 352.00 C701.63 352.00 700.98 350.31 700.65 348.25 C699.70 342.41 693.65 330.84 689.66 327.25 C682.90 321.16 678.81 324.73 685.02 331.30 C686.68 333.06 689.94 338.32 692.27 343.00 C694.60 347.68 696.77 351.73 697.11 352.00 C697.44 352.27 698.02 354.19 698.40 356.25 C698.78 358.31 699.46 360.00 699.92 360.00 C700.37 360.00 701.03 361.80 701.38 364.00 C701.94 367.49 702.36 368.00 704.64 368.00 C707.10 368.00 707.23 367.77 706.67 364.33 Z M85.00 330.50 C85.00 328.50 84.50 328.00 82.50 328.00 C80.50 328.00 80.00 328.50 80.00 330.50 C80.00 332.50 80.50 333.00 82.50 333.00 C84.50 333.00 85.00 332.50 85.00 330.50 Z M89.00 323.50 C89.00 321.94 89.57 321.00 90.50 321.00 C91.33 321.00 92.00 320.32 92.00 319.50 C92.00 318.68 92.45 318.00 93.00 318.00 C93.55 318.00 94.00 317.37 94.00 316.61 C94.00 315.84 94.67 314.95 95.50 314.64 C96.33 314.32 97.00 313.37 97.00 312.53 C97.00 311.69 97.45 311.00 98.00 311.00 C98.55 311.00 99.00 310.37 99.00 309.61 C99.00 308.84 99.67 307.95 100.50 307.64 C101.33 307.32 102.00 306.37 102.00 305.53 C102.00 304.69 102.46 304.00 103.03 304.00 C103.60 304.00 104.34 303.28 104.68 302.40 C105.01 301.53 106.57 299.40 108.14 297.68 C109.71 295.96 111.00 293.53 111.00 292.28 C111.00 290.75 111.59 290.00 112.80 290.00 C115.26 290.00 117.00 288.06 117.00 285.30 C117.00 283.57 116.43 283.00 114.70 283.00 C111.77 283.00 110.00 284.77 110.00 287.70 C110.00 289.31 109.42 290.00 108.07 290.00 C106.22 290.00 102.00 294.73 102.00 296.80 C102.00 297.34 101.33 298.05 100.50 298.36 C99.67 298.68 99.00 299.58 99.00 300.36 C99.00 301.15 98.33 302.05 97.50 302.36 C96.67 302.68 96.00 303.63 96.00 304.47 C96.00 305.31 95.55 306.00 95.00 306.00 C94.45 306.00 94.00 306.63 94.00 307.39 C94.00 308.16 93.33 309.05 92.50 309.36 C91.67 309.68 91.00 310.63 91.00 311.47 C91.00 312.31 90.55 313.00 90.00 313.00 C89.45 313.00 89.00 313.68 89.00 314.50 C89.00 315.32 88.55 316.00 88.00 316.00 C87.45 316.00 87.00 317.12 87.00 318.50 C87.00 320.06 86.43 321.00 85.50 321.00 C84.57 321.00 84.00 321.94 84.00 323.50 C84.00 325.50 84.50 326.00 86.50 326.00 C88.50 326.00 89.00 325.50 89.00 323.50 Z M553.38 295.88 C554.46 290.47 554.22 289.84 551.25 290.18 C547.26 290.64 546.38 299.00 550.32 299.00 C552.24 299.00 552.88 298.35 553.38 295.88 Z M356.00 293.50 C356.00 290.43 355.69 290.00 353.50 290.00 C351.31 290.00 351.00 290.43 351.00 293.50 C351.00 296.57 351.31 297.00 353.50 297.00 C355.69 297.00 356.00 296.57 356.00 293.50 Z M301.75 282.38 C311.65 281.72 312.00 281.62 312.00 279.35 C312.00 276.55 305.75 276.16 292.54 278.12 C285.47 279.17 285.00 279.40 285.00 281.74 C285.00 284.00 285.30 284.17 288.25 283.65 C290.04 283.33 296.11 282.76 301.75 282.38 Z M781.00 273.70 C781.00 270.77 779.23 269.00 776.30 269.00 C773.72 269.00 773.03 272.63 775.20 274.80 C777.37 276.97 781.00 276.28 781.00 273.70 Z M617.00 256.50 C617.00 251.76 614.22 250.18 611.20 253.20 C608.32 256.08 610.53 261.00 614.70 261.00 C616.76 261.00 617.00 260.53 617.00 256.50 Z M294.00 257.00 C294.00 254.47 293.61 254.00 291.50 254.00 C289.39 254.00 289.00 254.47 289.00 257.00 C289.00 259.53 289.39 260.00 291.50 260.00 C293.61 260.00 294.00 259.53 294.00 257.00 Z M324.00 256.00 C324.00 253.47 323.61 253.00 321.50 253.00 C319.39 253.00 319.00 253.47 319.00 256.00 C319.00 258.53 319.39 259.00 321.50 259.00 C323.61 259.00 324.00 258.53 324.00 256.00 Z M593.00 255.50 C593.00 253.50 592.50 253.00 590.50 253.00 C588.50 253.00 588.00 253.50 588.00 255.50 C588.00 257.50 588.50 258.00 590.50 258.00 C592.50 258.00 593.00 257.50 593.00 255.50 Z M460.42 80.39 C464.34 78.89 462.23 75.00 457.50 75.00 C453.41 75.00 453.00 75.22 453.00 77.42 C453.00 80.56 456.42 81.93 460.42 80.39 Z"/><path fill="#333333" fill-rule="evenodd" d="M402.00 803.76 C401.73 803.49 392.73 802.99 382.00 802.66 C352.30 801.74 315.91 799.07 291.50 796.03 C279.00 794.47 253.53 791.06 242.31 789.45 C186.82 781.47 165.27 759.68 172.56 718.95 C173.13 715.75 172.73 714.85 168.52 709.95 C159.28 699.20 156.87 690.20 159.69 677.01 C161.79 667.13 161.82 667.29 156.62 656.67 C147.86 638.76 148.27 625.64 158.03 611.46 C161.83 605.93 161.77 603.17 157.72 597.83 C155.92 595.45 151.91 589.90 148.81 585.50 C145.71 581.10 141.74 576.15 139.97 574.50 C109.11 545.63 77.24 492.76 71.55 461.00 C70.61 455.77 69.21 448.35 68.43 444.50 C64.86 426.79 64.37 407.68 67.10 392.52 C67.59 389.76 68.64 383.68 69.41 379.00 C74.61 347.74 87.49 322.08 113.57 291.05 C135.73 264.68 174.44 241.46 214.91 230.26 C231.86 225.57 269.00 226.72 291.50 232.63 C307.69 236.88 307.85 236.87 316.62 231.65 C334.51 221.00 369.27 219.98 391.32 229.45 C408.46 236.81 407.56 235.19 378.66 206.59 C351.55 179.76 350.84 178.78 344.65 159.50 C334.10 126.68 340.40 101.47 364.61 79.72 C385.43 61.00 423.60 59.53 448.84 76.46 C457.12 82.01 457.99 82.04 465.50 76.87 C490.26 59.85 532.57 61.05 551.21 79.30 C556.12 84.11 567.12 97.52 570.05 102.28 C576.37 112.54 578.42 139.84 573.88 153.25 C565.93 176.71 554.13 193.61 534.00 210.39 C517.84 223.85 517.30 230.29 532.77 225.08 C548.73 219.70 581.62 222.61 595.95 230.67 L600.77 233.38 L609.64 230.74 C694.14 205.59 800.58 265.69 828.81 354.50 C853.50 432.20 832.54 497.86 757.82 576.89 C750.97 584.12 740.76 598.50 739.59 602.54 C739.18 603.95 740.37 606.68 743.39 611.28 C752.44 625.06 751.76 643.95 741.51 663.80 C740.01 666.71 739.95 667.85 741.04 673.34 C743.22 684.31 740.72 693.99 732.26 707.27 C729.25 711.99 729.22 712.16 729.75 722.49 C732.05 767.60 708.78 784.37 630.50 794.00 C626.10 794.55 618.67 795.65 614.00 796.46 C609.33 797.27 594.25 798.65 580.50 799.52 C566.75 800.38 550.10 801.54 543.50 802.07 C530.94 803.10 402.87 804.63 402.00 803.76 Z M502.00 781.99 C561.99 780.08 611.34 775.37 660.00 766.90 C677.54 763.85 675.79 758.81 654.85 752.05 C642.56 748.08 635.31 746.68 610.50 743.49 C603.35 742.57 593.45 741.22 588.50 740.48 C524.86 731.01 417.64 729.72 344.00 737.53 C336.02 738.38 323.88 739.70 317.00 740.48 C310.12 741.26 299.06 742.39 292.42 742.99 C265.95 745.39 229.00 755.82 229.00 760.90 C229.00 764.15 231.33 764.95 251.12 768.52 C286.56 774.92 288.01 775.07 359.50 780.00 C397.49 782.63 456.35 783.45 502.00 781.99 Z M210.14 748.58 C219.13 743.81 226.68 741.44 243.75 738.04 C251.86 736.42 264.12 733.74 271.00 732.08 C292.73 726.82 296.28 726.35 348.50 721.87 C361.70 720.74 375.43 719.41 379.00 718.92 C417.06 713.70 543.66 718.56 602.50 727.51 C608.00 728.35 617.23 729.72 623.00 730.57 C646.78 734.05 680.21 742.50 689.77 747.45 C703.88 754.75 708.98 749.14 708.99 726.32 C709.00 713.78 708.56 712.06 703.66 705.65 C691.23 689.36 696.63 669.86 715.08 664.38 C721.70 662.42 725.49 655.39 728.97 638.65 C732.84 620.00 718.73 613.49 651.65 602.99 C633.39 600.13 629.60 598.86 634.14 597.14 C659.01 587.68 671.20 575.91 671.39 561.16 C671.63 542.91 656.39 532.52 642.69 541.59 L638.85 544.13 L633.95 539.55 C621.95 528.32 607.29 532.14 599.89 548.43 C594.71 559.84 601.86 577.53 617.39 591.73 C623.72 597.51 623.70 598.03 617.22 596.89 C614.63 596.43 599.67 594.92 584.00 593.53 C568.33 592.14 553.92 590.78 552.00 590.49 C540.78 588.85 506.31 587.00 486.50 586.98 C459.32 586.97 457.83 586.53 468.19 581.61 C513.91 559.92 533.67 521.81 515.48 490.42 C505.54 473.27 472.89 473.01 455.96 489.95 C449.81 496.09 451.03 496.19 443.89 489.05 C426.94 472.10 405.11 471.72 389.48 488.11 C374.12 504.21 373.66 519.99 387.81 545.64 C394.13 557.11 408.82 568.95 432.44 581.64 L440.50 585.97 L433.50 585.99 C429.65 586.00 420.43 586.46 413.00 587.01 C405.57 587.56 388.02 588.44 374.00 588.97 C357.26 589.59 342.49 590.76 331.00 592.37 C306.59 595.78 280.15 598.48 279.31 597.64 C278.92 597.26 282.03 593.47 286.21 589.22 C294.42 580.89 301.38 570.88 302.99 565.11 C309.79 540.62 282.71 520.49 269.21 540.00 C266.09 544.51 264.90 544.76 259.50 542.00 C245.21 534.72 229.60 546.17 231.31 562.69 C232.59 575.15 241.44 585.51 257.82 593.71 L268.13 598.88 L264.32 599.55 C252.52 601.62 233.76 605.51 221.50 608.41 C213.80 610.24 203.68 612.46 199.00 613.36 C172.43 618.42 168.18 624.85 175.03 649.58 C178.44 661.88 180.26 664.28 187.58 666.12 C204.90 670.49 209.30 691.50 196.05 706.60 C187.60 716.22 189.77 746.39 199.21 750.49 C203.51 752.36 202.77 752.49 210.14 748.58 Z M193.10 696.37 C195.02 694.68 197.00 688.46 197.00 684.08 C197.00 672.04 181.68 665.98 176.51 675.98 C170.51 687.58 184.08 704.26 193.10 696.37 Z M281.24 695.25 C258.50 683.44 250.46 670.59 256.92 656.37 C258.80 652.23 262.22 648.64 260.52 652.59 C255.05 665.30 262.09 679.20 279.11 689.25 C289.52 695.40 292.75 694.53 304.27 682.50 C317.92 668.23 314.91 645.26 299.25 644.26 C293.47 643.89 292.84 644.12 285.78 649.21 C284.45 650.17 283.79 650.19 282.86 649.26 C281.94 648.34 282.27 647.85 284.31 647.07 C285.77 646.52 287.94 644.94 289.14 643.55 C296.62 634.95 310.09 637.47 316.68 648.71 C322.01 657.81 320.12 667.11 310.62 678.50 C308.33 681.25 305.16 685.30 303.57 687.50 C298.31 694.81 293.74 699.00 291.03 699.00 C289.62 699.00 285.21 697.31 281.24 695.25 Z M599.00 691.18 C582.69 674.19 578.73 661.62 585.66 648.89 C591.28 638.55 603.90 635.63 611.43 642.93 C615.18 646.56 617.38 646.93 624.04 645.01 C639.10 640.67 652.06 657.58 644.75 672.02 C641.78 677.88 624.30 693.53 617.22 696.66 C608.73 700.42 607.53 700.06 599.00 691.18 Z M717.31 695.41 C726.17 686.55 723.21 672.00 712.56 672.00 C704.37 672.00 700.41 678.74 702.40 689.32 C703.92 697.42 712.01 700.72 717.31 695.41 Z M623.46 687.54 C636.14 681.46 642.00 673.29 642.00 661.70 C642.00 650.81 630.84 643.45 622.00 648.50 C618.44 650.54 615.60 650.33 613.40 647.86 C606.83 640.48 591.31 641.61 587.45 649.74 C583.51 658.05 587.00 669.01 597.56 681.50 C608.26 694.16 609.22 694.38 623.46 687.54 Z M444.58 686.43 C424.28 674.18 414.73 662.26 414.62 649.00 C414.51 635.36 424.22 626.07 436.50 628.07 C439.29 628.52 439.71 628.76 437.88 628.86 C421.40 629.75 413.14 645.81 422.16 659.42 C425.53 664.51 442.09 678.87 447.63 681.49 C458.01 686.42 481.96 662.18 481.99 646.71 C482.02 631.54 463.49 624.06 454.06 635.43 C452.23 637.63 450.72 637.40 448.00 634.50 L445.65 632.00 L450.02 632.00 C453.05 632.00 455.50 631.24 457.99 629.51 C477.66 615.88 498.76 645.19 482.98 664.23 C477.58 670.75 453.79 690.01 451.15 690.00 C450.79 690.00 447.84 688.39 444.58 686.43 Z M205.50 597.55 C220.43 594.93 222.92 592.30 217.44 584.94 C204.85 568.04 179.95 501.55 175.66 473.38 C169.58 433.43 171.05 394.52 179.66 367.50 C183.90 354.20 198.52 323.64 203.82 317.00 C211.33 307.61 229.62 288.70 235.44 284.33 C246.21 276.24 271.63 265.07 283.72 263.12 C291.06 261.94 293.57 260.74 294.26 258.10 C296.19 250.73 282.19 247.47 249.00 247.56 C216.77 247.65 205.94 249.94 185.84 260.89 C116.88 298.48 86.60 346.06 86.52 417.00 L86.50 438.50 L90.29 453.26 C94.71 470.46 100.88 488.85 104.94 496.88 C111.68 510.23 150.50 560.37 169.33 580.04 C173.82 584.73 179.82 591.20 182.64 594.40 C188.50 601.04 186.92 600.82 205.50 597.55 Z M717.96 594.82 C720.46 591.97 725.71 586.23 729.62 582.07 C733.54 577.91 740.91 569.10 746.00 562.50 C751.09 555.90 760.38 544.42 766.65 537.00 C817.17 477.16 830.42 418.78 807.67 356.30 C800.49 336.56 797.38 330.60 787.18 317.00 C743.89 259.24 679.63 233.92 617.50 250.14 C606.23 253.08 607.21 260.19 619.15 262.09 C648.99 266.84 684.65 289.52 699.15 312.98 C701.54 316.85 706.52 324.34 710.20 329.62 C720.48 344.34 725.94 359.95 732.03 392.00 C734.67 405.90 734.41 446.34 731.59 459.87 C724.08 495.94 713.77 529.03 704.55 546.68 C702.59 550.43 698.78 558.32 696.08 564.22 C693.38 570.11 689.05 578.09 686.47 581.94 C679.04 593.01 680.21 594.70 697.50 597.90 C712.92 600.76 712.73 600.78 717.96 594.82 Z M350.00 577.40 C366.94 576.38 369.12 573.90 362.56 563.11 C357.17 554.23 354.44 547.70 350.61 534.50 C348.69 527.90 345.53 517.86 343.59 512.20 C329.49 471.08 327.01 400.56 337.83 348.36 C341.72 329.60 343.63 323.83 352.36 304.50 C359.44 288.84 356.33 285.50 329.50 279.94 C299.08 273.65 282.92 277.03 249.88 296.60 C224.57 311.59 200.16 349.55 194.52 382.69 C190.01 409.15 188.77 435.84 191.36 450.23 C192.19 454.78 193.15 460.98 193.52 464.00 C193.88 467.02 195.28 474.68 196.63 481.00 C197.98 487.32 199.55 495.88 200.11 500.00 C200.81 505.08 203.22 512.70 207.57 523.61 C211.11 532.46 214.00 540.38 214.00 541.20 C214.00 547.92 221.50 547.02 225.72 539.78 C232.33 528.44 243.33 524.42 257.42 528.19 C261.66 529.32 262.25 529.20 270.07 525.53 C299.25 511.83 324.07 535.08 314.54 567.19 C310.68 580.18 309.45 579.82 350.00 577.40 Z M586.89 577.36 C589.42 575.59 589.41 575.85 587.01 561.50 C582.03 531.71 612.23 509.51 635.00 526.23 C639.45 529.50 639.47 529.50 651.48 529.50 C666.83 529.50 671.94 531.92 678.33 542.23 C681.55 547.43 687.80 546.54 689.59 540.62 C689.94 539.45 692.37 533.55 694.98 527.50 C697.60 521.45 700.50 513.12 701.44 509.00 C702.37 504.88 704.66 496.32 706.51 490.00 C716.62 455.60 718.86 404.83 711.42 378.66 C708.26 367.54 698.76 341.44 695.60 335.20 C692.95 329.97 658.58 296.28 651.03 291.52 C629.25 277.77 588.06 275.16 558.66 285.66 C546.87 289.88 545.49 293.07 550.88 303.78 C566.60 335.07 575.82 411.77 568.72 452.17 C567.79 457.49 566.56 467.16 565.99 473.67 C564.72 488.30 561.62 501.43 555.16 519.54 C552.42 527.22 549.41 536.42 548.47 540.00 C547.52 543.58 544.29 551.72 541.28 558.10 C533.05 575.57 533.93 576.89 554.00 577.10 C560.88 577.17 569.42 577.56 573.00 577.96 C583.40 579.13 584.43 579.09 586.89 577.36 Z M392.44 572.78 C394.64 569.64 394.39 567.66 391.43 564.70 C385.97 559.25 380.00 560.35 380.00 566.81 C380.00 573.93 388.71 578.11 392.44 572.78 Z M521.46 570.59 C523.33 565.35 518.37 562.22 513.38 565.49 C510.17 567.59 510.44 571.93 513.89 573.64 C517.08 575.22 520.27 573.94 521.46 570.59 Z M541.56 501.55 C550.19 488.38 555.79 415.18 551.01 378.07 C543.73 321.53 530.73 289.94 503.50 262.55 C481.51 240.43 448.32 235.91 417.03 250.76 C401.36 258.19 373.82 292.64 366.46 314.04 C349.29 363.86 344.04 421.09 352.31 468.00 C353.72 475.98 355.39 486.10 356.02 490.50 C358.22 505.84 365.44 508.51 369.30 495.41 C378.17 465.30 414.64 452.92 441.19 471.00 C450.06 477.05 451.84 477.14 458.59 471.93 C483.96 452.36 518.17 463.30 531.12 495.13 C535.00 504.67 538.22 506.65 541.56 501.55 Z M548.50 273.54 C557.32 267.69 568.79 263.72 581.92 261.99 C597.50 259.93 597.14 253.51 581.00 245.72 C564.89 237.94 549.31 238.22 532.23 246.57 C519.78 252.66 519.49 255.00 529.53 268.27 C537.46 278.76 539.70 279.38 548.50 273.54 Z M376.70 266.25 C390.41 251.74 389.23 248.05 369.26 242.94 C355.15 239.33 341.15 240.88 328.02 247.49 C313.36 254.87 314.89 260.23 332.58 263.48 C339.04 264.66 344.50 266.54 351.57 269.99 C365.97 277.02 366.62 276.92 376.70 266.25 Z M484.72 225.82 C488.45 222.82 494.65 218.19 498.50 215.52 C521.39 199.69 550.21 165.56 554.42 149.30 C568.91 93.39 504.14 61.07 462.70 103.51 L457.43 108.91 L450.21 101.58 C424.33 75.29 380.30 78.83 366.02 108.34 C350.03 141.40 362.33 170.51 407.98 207.57 C414.32 212.72 422.88 219.70 427.00 223.10 C437.38 231.64 436.92 231.52 458.83 231.38 L477.95 231.27 L484.72 225.82 Z"/></g></svg>
