<svg xmlns="http://www.w3.org/2000/svg" viewBox="161.038 311.016 363.924 473.969" width="363.924" height="473.969"><path fill="#ffccaa" d="m 321.791989714,763.166362495 c 14.6315077167,-1.20926063777 37.0819695571,-5.09449268684 46.025704274,-8.49623448092 c 8.82351465353,-3.35601176996 18.2909496467,-10.2328753968 20.8714510076,-14.4761676347 c 1.20637063624,-1.98372104622 5.83921307961,-10.0674553096 6.82692360053,-14.495597645 c 2.31462122073,-10.3769554728 5.76605304102,-14.1293774519 16.1000584912,-25.3860633886 c 23.2853722807,-25.3644033772 25.9852737047,-33.7278977881 47.4654650333,-84.2537344355 c 17.6208492933,-41.4478518597 19.3490102047,-46.2916044143 33.8116878323,-60.6400119816 c 11.2927659558,-11.2035359088 12.7795267399,-18.6856698548 12.7756067379,-22.7013719727 c -0.0101000053268,-10.3405554536 -11.7169861796,-19.1085800779 -24.3145228235,-17.8284294027 c -9.28448489665,0.943480497593 -23.9511026318,8.02163423062 -31.7981867704,15.6853482725 c -3.39565179087,3.31630174902 -15.5154981829,13.1789169506 -22.3243317739,25.8005136072 l -13.8802773205,25.72998357 c -17.8700694247,-1.86149098175 6.3896333699,0.455510240237 -8.05399424769,-1.84140097116 c -3.31551174861,-0.274950145009 -7.01543369995,7.33942387082 -7.20585380038,6.7301735495 c -2.24244118267,-7.17492378406 3.76328198476,5.73498302464 -2.92359154191,-12.0982463806 c -6.46560340997,-17.243119094 -13.2430869844,-112.610059391 -20.5751408514,-188.120449215 c -2.87309151527,-29.5890856053 -5.62973296913,-39.7460009621 -11.4515960396,-46.3599844503 c -5.54025292194,-6.2940733195 -11.2758059469,-8.54514450672 -19.2324601432,-7.88532415873 c -7.84351413668,0.650450343048 -11.3248959728,3.82222201584 -17.7987093871,8.11016427731 c -9.60041506327,6.35885335367 -9.80669517206,-0.586320309226 -15.9344684039,-3.96280208999 c -7.94126418823,-4.37573230777 -14.7006277531,-7.72401407365 -23.7285725145,-4.26593224986 c -5.15422271834,1.97428104124 -15.3452480931,10.4115454911 -17.9883094871,16.5555087314 c -2.38383125724,5.54137292253 -3.17074167225,10.5436055607 -4.09996216233,46.2623143988 c -0.916340483279,35.2232985768 -5.38268283883,75.4139097734 -5.06016266874,98.2425218132 c 0.129250068167,9.14873482505 -7.8291341291,-0.572420301895 -7.31348385714,8.79678463944 c -8.2904643724,-1.54172081311 -14.6293577155,0.834140439927 -20.9594710541,6.13932323789 c -6.20351327174,5.57750294158 -5.39560284565,8.25863435561 -12.5428466151,30.7504062178 c -3.42492180631,10.7779356843 -4.6465624506,20.9987710748 -6.36667335779,20.9987710748 c -1.17070061743,0 -2.1285511226,-0.553370291848 -2.1285511226,-1.22972064856 c 0,-1.11289058694 7.77677410148,-23.1491022089 9.21281485885,-27.9982947663 c 0.483710255109,-1.63338086145 -10.3549654612,-0.283770149661 -13.7218172369,-0.283770149661 c -8.27910436641,0 -16.6380087749,9.02871476176 -21.1701111651,18.7286298775 c -4.35637229756,9.32376491737 -7.54298397818,24.4132928756 -6.92254365096,44.2117333173 c 0.632760333719,20.1915606491 7.24814382268,37.4329597422 15.536478194,66.7325151948 c 8.65102456256,30.5817461289 15.7403783015,45.8231341672 30.0941358717,61.061662204 c 10.5656855724,2.43518128432 -3.95576208627,-10.7147056509 1.94859102769,7.61871401812 c 3.19858168694,9.93185523807 0.508670268273,13.526697134 2.93101154582,17.1211990297 c 8.08448426377,11.996556327 56.5839198424,20.1310006171 93.8957095207,17.0472689908 z"/><path fill="#000000" d="m 294.470131927,324.430485744 c -2.3705436423,0.00982677696004 -4.74810965059,0.14343314832 -6.14647513012,0.39647265504 c -6.765422236,1.22523278761 -13.0243270331,4.52894228815 -17.9785344328,9.50978403292 c -5.91308539779,5.96635408797 -9.03044141187,12.4655802747 -10.4687602988,21.8945541853 c -0.133190623104,0.878971183306 -0.345335619552,10.2277472553 -0.478514904067,20.775409014 c -0.106544939424,10.5476957745 -0.346053730176,22.0544736417 -0.505859800723,25.5703432568 c -0.159798511488,3.5159074104 -0.533182020202,13.2107031968 -0.826174934323,21.5742352721 c -0.292989134592,8.33692418698 -0.665650753152,17.6857040385 -0.798826258138,20.7754316912 c -0.98551612273,20.8023041466 -1.83821579579,38.3808207256 -2.29101855998,46.5313007174 c -0.186444195168,3.14298122477 -0.186293013984,3.1445308319 -2.34375433649,3.1445308319 c -5.54018566886,0.0264567072 -12.2267631379,1.73079778502 -16.8613432783,4.31444642429 c -9.16261912104,5.08739802278 -15.2355257075,12.9437550211 -19.0976758246,24.6367503117 c -0.719161333229,2.18411456525 -0.718363852483,2.18521062883 -3.56836350172,2.02537432205 c -9.80186985994,-0.50607901344 -19.2582340215,3.67612167014 -25.8105739377,11.4004219043 c -7.4845797897,8.84307879101 -11.2399657546,19.5227821958 -12.6250121718,35.8769957515 c -0.452802764198,5.40699504576 -0.15930717264,19.2571946508 0.533204697379,25.6230563561 c 1.75794614614,16.3808592394 5.56616993486,35.5599310134 11.2129005432,56.4688178947 c 6.17944018729,22.8266202004 14.5705136948,42.8029459482 24.0527600751,57.1328812454 c 2.45046557522,3.70231381027 4.18084761199,6.04671822586 7.75000859445,10.5214922958 c 1.7046698969,2.13082319789 3.08984481812,4.10154552192 3.08984481812,4.39453465651 c 0,0.292913544 -0.185348131584,1.78325765587 -0.398438010432,3.32810258458 c -1.14532597281,8.31031629859 0.052119713184,14.7303008677 3.70117617186,19.7910532068 c 8.49673025752,11.9326930578 31.6169405377,19.5778499421 64.2188151506,21.2558854939 c 7.59111717007,0.399534074016 25.9426987335,0.15911819616 32.8945765032,-0.400403365824 c 17.3397258989,-1.4116921009 31.4027508157,-4.02225099091 43.0957461063,-8.01759173107 c 16.5406690894,-5.64673060829 25.3304943084,-11.772592184 29.7519770109,-20.7753938959 c 1.78458049123,-3.59580666614 2.58391320634,-6.57948071827 3.46288061011,-12.652353289 c 1.06541159894,-7.3247661601 1.89097424947,-9.82851554362 4.76761202333,-14.2500360415 c 2.13082319789,-3.27617184787 4.15570618109,-5.61872429395 11.4804723412,-13.3164166397 c 8.47007701478,-8.89625677248 13.397034006,-14.5964677246 18.1914428942,-21.0156207972 c 10.5210387522,-14.1967446741 16.647429462,-26.5039135247 32.5488175764,-65.5782023413 c 12.5719626944,-30.8439473644 16.2213252949,-38.4875168462 22.5605791118,-47.1973294236 c 2.58364863926,-3.54251529878 8.09741539622,-9.24215932147 11.6133228066,-11.9589985838 c 1.43829998928,-1.14531085469 3.35539078829,-2.63754473136 4.23435819206,-3.33006793997 c 3.62245234982,-2.8233464065 6.41983338797,-7.11171407654 7.59178992634,-11.5332345744 c 0.745814575968,-2.90324566224 0.692901161568,-9.61591700362 -0.13266148896,-12.652353289 c -2.71680146707,-9.93506048304 -10.1492464255,-16.5131805707 -20.8300836892,-18.4043060013 c -3.16962690845,-0.5593703808 -11.4260471149,-0.425650623552 -15.1816522926,0.24037808256 c -9.37569010224,1.70468123549 -18.6981266324,5.99316229142 -26.3691732945,12.1992632805 c -7.05838491389,5.69998418035 -12.5977012909,12.1449892355 -23.8379089355,27.8066417872 c -8.68316689363,12.0925293646 -14.3840581611,19.6844704721 -17.0742139445,22.8008060132 c -1.65142766342,1.89112543066 -3.38188529078,2.92845512467 -4.44729688973,2.66211167376 c -2.05092394214,-0.50607901344 -3.96918639533,-5.61849752218 -5.38084070093,-14.4082093552 c -0.745814575968,-4.55467332566 -2.55741870384,-19.8712170297 -4.12890931622,-34.4941792568 c -0.585978269184,-5.4869320968 -1.46536142122,-13.7175381161 -1.99808611834,-18.2988571255 c -0.799068148032,-7.13832196493 -2.58243918979,-23.8379467308 -3.99413129069,-37.5019667077 c -0.23962217664,-2.21076024893 -0.585751497408,-5.56788962083 -0.798841376256,-7.45901505149 c -2.77009283443,-25.3303695839 -8.9772256351,-86.1653114111 -9.58984958796,-94.2891457193 c -0.95886665952,-12.7584182281 -2.13040744963,-18.0320109971 -5.56641560429,-25.037149898 c -5.69998418035,-11.6130846963 -15.2089782916,-18.1125527729 -27.3281533399,-18.671896697 c -8.70981257731,-0.399534074016 -16.7278956472,2.61107668557 -22.8008060132,8.55080020798 c -1.73128912387,1.7046698969 -1.73079778502,1.70525950352 -4.31444642429,-0.93165782593 c -4.74111752083,-4.79439377007 -9.90841479936,-7.48498041984 -16.673848374,-8.68357886236 c -1.37174247302,-0.239735562528 -3.73489335542,-0.35376397056 -6.10548991114,-0.34374821712 z m -0.16403158464,9.76173125558 c 1.64307490301,-0.03288190752 3.29397343229,0.084396895968 4.91210343994,0.357430114272 c 8.15047999181,1.38504641722 14.2485998202,7.19113711156 16.326169446,15.5546880846 c 1.99767037008,7.96402067852 2.31840125194,14.9693485559 4.44922444982,96.1544002698 c 0.932258771136,35.8780540198 1.73045762736,61.953255502 2.02344676195,65.9219505585 c 0.5593703808,8.15047999181 2.3981115312,16.3819553029 4.66212535219,20.8300836892 c 1.22524790573,2.3972044441 1.43735510688,1.51789688266 0.771477581952,-2.87694013622 c -0.45278764608,-2.82338420179 -0.532119972384,-5.0078389247 -0.9316540464,-23.8125482918 c -0.506041218144,-22.4803396984 -2.74329596957,-84.3271636469 -4.18163375414,-115.064528277 c -0.2664568368,-5.93971974288 -0.453127803744,-14.7036665227 -0.453127803744,-22.5078660125 c -0.0264567072,-14.1700763133 0.07899216864,-15.3945645335 1.73049542266,-19.9492378592 c 2.29062170938,-6.36588816199 7.61900253946,-11.0813880312 14.2245998073,-12.5996099534 c 3.16962690845,-0.719161333229 8.36345648477,-0.666263036947 11.1601950029,0.132812670144 c 6.4724066447,1.83785296094 11.7726677746,6.8192805328 14.7558504878,13.9043262485 c 2.47710369984,5.7799098928 3.11709144701,9.42921202091 4.58203711997,25.5703583749 c 0.612623952864,6.52570935065 1.75759464989,18.1382762514 2.55666279792,25.8359685971 c 0.799068148032,7.69765455043 1.86304352573,17.9257797587 2.36912253917,22.7734422189 c 5.14066293344,49.9682537545 5.94052478268,57.3203837089 8.55081910563,80.972717741 c 1.38504641722,12.598608378 3.19702849805,28.8450297495 3.99609664608,36.0898588586 c 4.47473627462,40.5126266012 6.65809493395,51.4610167653 12.6777139326,63.5801540183 c 2.15746888157,4.31497555843 2.8497653184,5.30029892515 3.51564284333,5.06056336262 c 0.34620491136,-0.13303944192 0.4261419624,-0.37266161856 0.292913544,-1.17188094778 c -0.2664568368,-1.46494567296 -1.54518508637,-6.55309960166 -2.87697793152,-11.2675714388 c -0.639231841248,-2.26405161629 -1.5184260168,-5.48659193914 -1.91796009082,-7.11133612358 c -0.878967403776,-3.5159074104 -0.798274446816,-3.99481160602 0.986306044416,-4.90042469347 c 1.01215802688,-0.532686901824 1.41225903034,-0.558954632544 4.20899754845,-0.42576400944 c 6.68553431885,0.31974820416 13.103855895,3.14150720822 18.4043060013,8.0957146079 c 4.28832987475,4.04859431222 4.23613457098,1.25215815648 -0.10544887584,-4.10158331722 c -1.59813629606,-2.02427825846 -4.90129398528,-4.74085295376 -7.13866212259,-5.93945517581 c -0.85152801888,-0.438652205376 -1.52889531379,-0.853871327232 -1.5703567535,-0.927723335616 l -0.001851969504,-0.00196535539192 l 0,-0.00192756009596 c 0,-0.0532913673601 2.423623356,-3.30406477632 5.35351470192,-7.24611414912 c 2.9565748249,-3.91540368912 7.77910341331,-10.44095052 10.7089947592,-14.4628991485 c 13.6906656607,-18.8046715718 18.0842932301,-24.1580350926 23.9707216056,-29.2187874317 c 6.81868714666,-5.9130740592 15.0761278261,-10.0936117498 23.226607818,-11.8515465573 c 3.5158696151,-0.745814575968 9.69509814874,-0.93240995232 12.9179786292,-0.37303957152 c 8.36356987066,1.46494567296 13.9037555395,7.85699951837 13.9570469069,16.140632338 c 0.0264567072,5.27376662736 -1.43867794224,7.85730188074 -6.8457107833,12.0390490208 c -8.92290245616,6.8986241977 -13.1045740056,11.213070622 -18.1387184563,18.8574716004 c -5.11400591117,7.72426243882 -9.48219724637,16.8343649961 -19.3906120457,40.3535462004 c -2.34391307674,5.56686914784 -5.32645326998,12.7046619786 -6.65820831984,15.8476809987 c -16.6205570066,39.5004685743 -24.7719818808,53.0054081505 -44.6953564189,73.9941942876 c -13.7439192327,14.5163794924 -16.8326264124,19.6564641578 -18.9101960383,31.5625493272 c -1.27850147779,7.27147479274 -2.42498398666,9.98854082688 -5.70115583453,13.4511568699 c -10.3346058956,10.8939649379 -39.845248603,18.5388194598 -75.6700112555,19.6308767424 c -5.32713358531,0.15987410208 -16.4623118818,-0.15987410208 -22.2422217746,-0.665990910816 c -13.2112134333,-1.14534864998 -25.6758223689,-3.6236617993 -35.0781581548,-6.95308721923 c -6.8719633959,-2.42388792307 -10.5750671279,-4.39502599536 -13.6914215666,-7.35160082026 c -3.22289559863,-3.06308196902 -4.60742799982,-6.23138604211 -4.60742799982,-10.5996529679 c 0,-2.15746888157 0.640411054483,-6.07362847661 1.14648628839,-7.00584945245 c 0.372888390336,-0.692523208608 3.94175456949,2.66434159622 6.52539942923,6.12695763926 c 1.4383151074,1.94441679802 1.9437893961,0.930935935776 0.931638928282,-1.81251121498 c -1.54486004682,-4.12849356797 -3.99529916533,-7.32412364006 -9.98829137793,-13.0507912994 c -5.19392406456,-4.98085308336 -7.99124840976,-8.20290206736 -11.1875096633,-12.9707030672 c -11.7728983259,-17.5794236661 -21.3341330952,-44.9085596837 -29.2715156491,-83.5567065379 c -3.96869127695,-19.2841049016 -5.06179548927,-28.1808908082 -5.03516114418,-41.1523875766 c 0,-8.52340617744 0.23962217664,-11.5595023051 1.46484740519,-18.6445329027 c 1.38504641722,-8.0172893687 4.1021426876,-14.4884865639 8.31055440896,-19.7090374145 c 4.34159100588,-5.40703284106 11.2403059123,-9.05734032403 17.6328284194,-9.37693734701 c 3.27616806834,-0.18633080928 4.92774313342,0.18746466816 4.92774313342,1.06639427664 c 0,0.719168892288 -2.07727104299,9.05609307926 -4.1015681991,16.3808970347 c -1.70467367643,6.12616393805 -1.78380568766,7.03192820669 -0.851562034646,7.64447656896 c 0.772430023411,0.506116808736 1.86377297494,0.29253559104 2.39648255394,-0.453090008448 c 0.213089878848,-0.292913544 1.1178336745,-2.82311963472 2.02343920289,-5.64646604122 c 7.56448660451,-23.4924977253 9.40377200717,-28.6868186405 11.880875707,-33.5078354171 c 3.03644762393,-5.85982048714 7.43016212252,-10.2554890025 13.1035270759,-13.1054810927 c 6.232712657,-3.14298122477 14.6243493145,-4.3153157161 16.4355641508,-2.29103745763 c 0.852336838214,0.932258771136 1.22495310242,3.38441757562 1.38476673203,8.65822199827 c 0.213089878848,7.64440097837 -0.666935793216,15.6868998095 -2.61132991405,23.8906711687 c -0.958877998109,4.04851872163 -0.95924461248,4.98092867395 0.132812670144,5.51365337107 c 0.905609307926,0.426179757696 1.78582017694,0.13455125376 2.39843657075,-0.824239815168 c 1.01215046782,-1.57149061238 2.74337156016,-9.21751678848 3.59570839837,-15.9296589957 c 0.958877998109,-7.37805752746 1.41204737668,-13.8237806932 2.29101855998,-32.0957653632 c 0.239735562528,-4.68782615347 0.585743938349,-12.1188348906 0.798830037667,-16.5136719095 c 2.45046557522,-49.6486189362 3.30271548425,-72.8218220009 3.59570461884,-96.8203987397 c 0.266343450912,-20.6425698871 0.399382892832,-22.7455795267 2.05078409955,-28.2324965054 c 1.59813251653,-5.35373769417 5.43291128023,-10.6551364624 9.96094648127,-13.7714946807 c 3.77558755063,-2.59696014252 8.6449974242,-4.0400487958 13.5742448104,-4.13867940024 z"/></svg>
